# xmcd
# Track frame offsets:
# 150
# 15902
# 34735
# 55187
# 68951
# 86858
# 98753
# 116195
# 135696
# 153948
# 173402
# 193769
# 210949
# 229582
# 247867
#
# Disc length: 3488 seconds
# Revision: 0
# Processed by: cddbd v1.5.1PL0 Copyright (c) Steve Scherf et al.
# Submitted via: VisiTrax 2.9.10.228 - For more info visit www.synapsa.com
#
DISCID=b90d9e0f
DTITLE=Montgomery, John - CB90021
DYEAR=1900
DGENRE=Karaoke
TTITLE0=Life's A Dance
TTITLE1=I Love The Way You Love Me
TTITLE2=I Swear
TTITLE3=Be My Baby Tonight
TTITLE4=I Can Love You Like That
TTITLE5=Sold
TTITLE6=If You've Got Love
TTITLE7=Long As I Live
TTITLE8=Friends
TTITLE9=I Miss You A Little
TTITLE10=How Was I To Know
TTITLE11=Angel In My Eyes
TTITLE12=Love Working On You
TTITLE13=Cover You In Kisses
TTITLE14=Ain't Got Nothin' On Us
EXTD=
EXTT0=
EXTT1=
EXTT2=
EXTT3=
EXTT4=
EXTT5=
EXTT6=
EXTT7=
EXTT8=
EXTT9=
EXTT10=
EXTT11=
EXTT12=
EXTT13=
EXTT14=
PLAYORDER=
